<mxfile host="Electron" modified="2024-01-24T09:40:32.604Z" agent="Mozilla/5.0 (Windows NT 10.0; Win64; x64) AppleWebKit/537.36 (KHTML, like Gecko) draw.io/22.0.2 Chrome/114.0.5735.289 Electron/25.8.4 Safari/537.36" etag="BaWVREVT2vmcieZzOz61" version="22.0.2" type="device">
  <diagram name="Seite-1" id="CErpVBUgEfdhA70EVk6W">
    <mxGraphModel dx="521" dy="613" grid="1" gridSize="10" guides="1" tooltips="1" connect="1" arrows="1" fold="1" page="1" pageScale="1" pageWidth="827" pageHeight="1169" math="0" shadow="0">
      <root>
        <mxCell id="0" />
        <mxCell id="1" parent="0" />
        <mxCell id="tetpJy2Lt4M8KuXS8SpM-4" value="&lt;p style=&quot;margin:0px;margin-top:4px;margin-left:10px;text-align:left;&quot;&gt;&lt;b&gt;act&lt;/b&gt;   [Aktivität] Trajektorieplanung [Autonomes Fahrzeug - Trajektorieplanung]&lt;/p&gt;" style="html=1;shape=mxgraph.sysml.package;align=left;spacingLeft=5;verticalAlign=top;spacingTop=-3;labelX=428.6;html=1;overflow=fill;" parent="1" vertex="1">
          <mxGeometry x="164" y="70" width="886" height="530" as="geometry" />
        </mxCell>
        <mxCell id="WoYhFYyGGw2v94fdUYJs-2" value="" style="points=[[0.145,0.145,0],[0.5,0,0],[0.855,0.145,0],[1,0.5,0],[0.855,0.855,0],[0.5,1,0],[0.145,0.855,0],[0,0.5,0]];shape=mxgraph.bpmn.event;html=1;verticalLabelPosition=bottom;labelBackgroundColor=#ffffff;verticalAlign=top;align=center;perimeter=ellipsePerimeter;outlineConnect=0;aspect=fixed;outline=standard;symbol=general;" parent="1" vertex="1">
          <mxGeometry x="245" y="488" width="50" height="50" as="geometry" />
        </mxCell>
        <mxCell id="WoYhFYyGGw2v94fdUYJs-3" value="Wahrnehmung und Analyse der Umgebung" style="points=[[0.25,0,0],[0.5,0,0],[0.75,0,0],[1,0.25,0],[1,0.5,0],[1,0.75,0],[0.75,1,0],[0.5,1,0],[0.25,1,0],[0,0.75,0],[0,0.5,0],[0,0.25,0]];shape=mxgraph.bpmn.task;whiteSpace=wrap;rectStyle=rounded;size=10;html=1;container=1;expand=0;collapsible=0;taskMarker=abstract;" parent="1" vertex="1">
          <mxGeometry x="400" y="120" width="120" height="80" as="geometry" />
        </mxCell>
        <mxCell id="WoYhFYyGGw2v94fdUYJs-5" value="Planung der Route" style="points=[[0.25,0,0],[0.5,0,0],[0.75,0,0],[1,0.25,0],[1,0.5,0],[1,0.75,0],[0.75,1,0],[0.5,1,0],[0.25,1,0],[0,0.75,0],[0,0.5,0],[0,0.25,0]];shape=mxgraph.bpmn.task;whiteSpace=wrap;rectStyle=rounded;size=10;html=1;container=1;expand=0;collapsible=0;taskMarker=abstract;" parent="1" vertex="1">
          <mxGeometry x="400" y="270" width="120" height="80" as="geometry" />
        </mxCell>
        <mxCell id="tetpJy2Lt4M8KuXS8SpM-9" style="edgeStyle=orthogonalEdgeStyle;rounded=0;orthogonalLoop=1;jettySize=auto;html=1;entryX=0;entryY=0.5;entryDx=0;entryDy=0;" parent="1" source="WoYhFYyGGw2v94fdUYJs-13" target="WoYhFYyGGw2v94fdUYJs-29" edge="1">
          <mxGeometry relative="1" as="geometry" />
        </mxCell>
        <mxCell id="WoYhFYyGGw2v94fdUYJs-13" value="Kurzzeitroute durchführen" style="points=[[0.25,0,0],[0.5,0,0],[0.75,0,0],[1,0.25,0],[1,0.5,0],[1,0.75,0],[0.75,1,0],[0.5,1,0],[0.25,1,0],[0,0.75,0],[0,0.5,0],[0,0.25,0]];shape=mxgraph.bpmn.task;whiteSpace=wrap;rectStyle=rounded;size=10;html=1;container=1;expand=0;collapsible=0;taskMarker=abstract;" parent="1" vertex="1">
          <mxGeometry x="590" y="270" width="120" height="80" as="geometry" />
        </mxCell>
        <mxCell id="WoYhFYyGGw2v94fdUYJs-20" value="Fusion der Sensordaten" style="points=[[0.25,0,0],[0.5,0,0],[0.75,0,0],[1,0.25,0],[1,0.5,0],[1,0.75,0],[0.75,1,0],[0.5,1,0],[0.25,1,0],[0,0.75,0],[0,0.5,0],[0,0.25,0]];shape=mxgraph.bpmn.task;whiteSpace=wrap;rectStyle=rounded;size=10;html=1;container=1;expand=0;collapsible=0;taskMarker=abstract;" parent="1" vertex="1">
          <mxGeometry x="210" y="120" width="120" height="80" as="geometry" />
        </mxCell>
        <mxCell id="WoYhFYyGGw2v94fdUYJs-29" value="" style="rhombus;whiteSpace=wrap;html=1;" parent="1" vertex="1">
          <mxGeometry x="792" y="270" width="80" height="80" as="geometry" />
        </mxCell>
        <mxCell id="WoYhFYyGGw2v94fdUYJs-32" value="" style="points=[[0.145,0.145,0],[0.5,0,0],[0.855,0.145,0],[1,0.5,0],[0.855,0.855,0],[0.5,1,0],[0.145,0.855,0],[0,0.5,0]];shape=mxgraph.bpmn.event;html=1;verticalLabelPosition=bottom;labelBackgroundColor=#ffffff;verticalAlign=top;align=center;perimeter=ellipsePerimeter;outlineConnect=0;aspect=fixed;outline=end;symbol=terminate;" parent="1" vertex="1">
          <mxGeometry x="970" y="285" width="50" height="50" as="geometry" />
        </mxCell>
        <mxCell id="WoYhFYyGGw2v94fdUYJs-33" style="edgeStyle=orthogonalEdgeStyle;rounded=0;orthogonalLoop=1;jettySize=auto;html=1;exitX=1;exitY=0.5;exitDx=0;exitDy=0;entryX=0;entryY=0.5;entryDx=0;entryDy=0;entryPerimeter=0;" parent="1" source="WoYhFYyGGw2v94fdUYJs-29" target="WoYhFYyGGw2v94fdUYJs-32" edge="1">
          <mxGeometry relative="1" as="geometry" />
        </mxCell>
        <mxCell id="WoYhFYyGGw2v94fdUYJs-34" value="Ziel errreicht" style="text;html=1;align=center;verticalAlign=middle;resizable=0;points=[];autosize=1;strokeColor=none;fillColor=none;" parent="1" vertex="1">
          <mxGeometry x="872" y="280" width="90" height="30" as="geometry" />
        </mxCell>
        <mxCell id="WoYhFYyGGw2v94fdUYJs-37" value="Empfang der Sensordaten" style="points=[[0.25,0,0],[0.5,0,0],[0.75,0,0],[1,0.25,0],[1,0.5,0],[1,0.75,0],[0.75,1,0],[0.5,1,0],[0.25,1,0],[0,0.75,0],[0,0.5,0],[0,0.25,0]];shape=mxgraph.bpmn.task;whiteSpace=wrap;rectStyle=rounded;size=10;html=1;container=1;expand=0;collapsible=0;taskMarker=abstract;" parent="1" vertex="1">
          <mxGeometry x="210" y="360" width="120" height="80" as="geometry" />
        </mxCell>
        <mxCell id="WoYhFYyGGw2v94fdUYJs-39" style="edgeStyle=orthogonalEdgeStyle;rounded=0;orthogonalLoop=1;jettySize=auto;html=1;exitX=0.5;exitY=0;exitDx=0;exitDy=0;exitPerimeter=0;entryX=0.5;entryY=1;entryDx=0;entryDy=0;entryPerimeter=0;" parent="1" source="WoYhFYyGGw2v94fdUYJs-2" target="WoYhFYyGGw2v94fdUYJs-37" edge="1">
          <mxGeometry relative="1" as="geometry" />
        </mxCell>
        <mxCell id="WoYhFYyGGw2v94fdUYJs-41" style="edgeStyle=orthogonalEdgeStyle;rounded=0;orthogonalLoop=1;jettySize=auto;html=1;exitX=1;exitY=0.5;exitDx=0;exitDy=0;exitPerimeter=0;entryX=0;entryY=0.5;entryDx=0;entryDy=0;entryPerimeter=0;" parent="1" source="WoYhFYyGGw2v94fdUYJs-20" target="WoYhFYyGGw2v94fdUYJs-3" edge="1">
          <mxGeometry relative="1" as="geometry" />
        </mxCell>
        <mxCell id="WoYhFYyGGw2v94fdUYJs-40" style="edgeStyle=orthogonalEdgeStyle;rounded=0;orthogonalLoop=1;jettySize=auto;html=1;exitX=0.5;exitY=0;exitDx=0;exitDy=0;exitPerimeter=0;entryX=0.5;entryY=1;entryDx=0;entryDy=0;entryPerimeter=0;" parent="1" source="WoYhFYyGGw2v94fdUYJs-37" target="WoYhFYyGGw2v94fdUYJs-20" edge="1">
          <mxGeometry relative="1" as="geometry" />
        </mxCell>
        <mxCell id="WoYhFYyGGw2v94fdUYJs-42" style="edgeStyle=orthogonalEdgeStyle;rounded=0;orthogonalLoop=1;jettySize=auto;html=1;exitX=0.5;exitY=1;exitDx=0;exitDy=0;exitPerimeter=0;entryX=0.5;entryY=0;entryDx=0;entryDy=0;entryPerimeter=0;" parent="1" source="WoYhFYyGGw2v94fdUYJs-3" target="WoYhFYyGGw2v94fdUYJs-5" edge="1">
          <mxGeometry relative="1" as="geometry" />
        </mxCell>
        <mxCell id="WoYhFYyGGw2v94fdUYJs-46" value="Ziel nicht erreicht" style="text;html=1;align=center;verticalAlign=middle;resizable=0;points=[];autosize=1;strokeColor=none;fillColor=none;" parent="1" vertex="1">
          <mxGeometry x="717" y="370" width="110" height="30" as="geometry" />
        </mxCell>
        <mxCell id="W3pPLL17Tat-Ig3YUmO4-1" value="Geplante Route möglich" style="shape=note;size=15;align=left;spacingLeft=10;html=1;whiteSpace=wrap;" parent="1" vertex="1">
          <mxGeometry x="632" y="160" width="160" height="40" as="geometry" />
        </mxCell>
        <mxCell id="W3pPLL17Tat-Ig3YUmO4-3" value="" style="edgeStyle=none;endArrow=none;exitX=0;exitY=0.5;dashed=1;html=1;rounded=0;entryX=0.25;entryY=0;entryDx=0;entryDy=0;entryPerimeter=0;exitDx=0;exitDy=0;exitPerimeter=0;" parent="1" source="W3pPLL17Tat-Ig3YUmO4-1" target="WoYhFYyGGw2v94fdUYJs-13" edge="1">
          <mxGeometry x="1" relative="1" as="geometry">
            <mxPoint x="940" y="110" as="targetPoint" />
          </mxGeometry>
        </mxCell>
        <mxCell id="tetpJy2Lt4M8KuXS8SpM-1" style="edgeStyle=orthogonalEdgeStyle;rounded=0;orthogonalLoop=1;jettySize=auto;html=1;exitX=0.5;exitY=1;exitDx=0;exitDy=0;entryX=1;entryY=0.5;entryDx=0;entryDy=0;entryPerimeter=0;" parent="1" source="WoYhFYyGGw2v94fdUYJs-29" target="WoYhFYyGGw2v94fdUYJs-37" edge="1">
          <mxGeometry relative="1" as="geometry">
            <Array as="points">
              <mxPoint x="832" y="400" />
            </Array>
          </mxGeometry>
        </mxCell>
        <mxCell id="tetpJy2Lt4M8KuXS8SpM-6" style="edgeStyle=orthogonalEdgeStyle;rounded=0;orthogonalLoop=1;jettySize=auto;html=1;entryX=0;entryY=0.5;entryDx=0;entryDy=0;entryPerimeter=0;" parent="1" source="WoYhFYyGGw2v94fdUYJs-5" target="WoYhFYyGGw2v94fdUYJs-13" edge="1">
          <mxGeometry relative="1" as="geometry" />
        </mxCell>
      </root>
    </mxGraphModel>
  </diagram>
</mxfile>
